PathFileType	4	(X/Y/Z)	Walk_125 04
DataRate	CameraRate	NumFrames	NumMarkers	Units	OrigDataRate	OrigDataStartFrame	OrigNumFrames
120	120	4	42	mm	120	510	128
Frame#	Time	LASI			RASI			LPSI			RPSI			RTH1			RTH2			RTH3			LTH1			LTH2			LTH3			RTB1			RTB2			RTB3			LTB1			LTB2			LTB3			RCAL			RTOE			RMT5			LCAL			LTOE			LMT5			LACR			RACR			CLAV			C7			RUA1			RUA2			RUA3			RLEL			RMEL			LUA1			LUA2			LUA3			LLEL			LMEL			RFAsuperior			RFAradius			RFAulna			LFAsuperior			LFAradius			LFAulna		
		X1	Y1	Z1	X2	Y2	Z2	X3	Y3	Z3	X4	Y4	Z4	X5	Y5	Z5	X6	Y6	Z6	X7	Y7	Z7	X8	Y8	Z8	X9	Y9	Z9	X10	Y10	Z10	X11	Y11	Z11	X12	Y12	Z12	X13	Y13	Z13	X14	Y14	Z14	X15	Y15	Z15	X16	Y16	Z16	X17	Y17	Z17	X18	Y18	Z18	X19	Y19	Z19	X20	Y20	Z20	X21	Y21	Z21	X22	Y22	Z22	X23	Y23	Z23	X24	Y24	Z24	X25	Y25	Z25	X26	Y26	Z26	X27	Y27	Z27	X28	Y28	Z28	X29	Y29	Z29	X30	Y30	Z30	X31	Y31	Z31	X32	Y32	Z32	X33	Y33	Z33	X34	Y34	Z34	X35	Y35	Z35	X36	Y36	Z36	X37	Y37	Z37	X38	Y38	Z38	X39	Y39	Z39	X40	Y40	Z40	X41	Y41	Z41	X42	Y42	Z42	

510	  4.250000	941.018883	1075.427839	-625.017366	925.061096	1076.495206	-369.254785	750.567468	1098.509009	-541.372918	746.993312	1089.227583	-458.566123	891.616381	903.330436	-308.002223	978.068367	815.867466	-310.701243	948.973859	688.795341	-342.415202	826.065017	870.741492	-676.499168	835.796343	742.798475	-662.550512	729.813345	656.311060	-643.951937	1128.582880	434.520222	-408.316956	1133.940933	367.799505	-336.103857	1184.612328	278.076922	-403.992583	702.869498	415.035833	-579.815130	646.382823	341.632897	-629.465689	626.468976	230.306915	-560.453318	1143.204646	 93.882183	-407.805330	1367.252899	157.577907	-437.023512	1319.906085	106.440209	-344.877608	475.043382	127.491058	-547.656083	701.662169	 73.594939	-524.457044	629.251346	 52.293223	-614.477464	910.194903	1533.539093	-679.526986	866.821477	1537.860085	-335.076757	944.193762	1487.903134	-467.486942	824.098607	1578.455021	-513.415670	825.832520	1430.795861	-268.538433	812.524050	1338.909128	-280.573669	736.288339	1339.581427	-270.236113	684.592889	1213.056792	-253.153041	690.096934	1207.824983	-326.040128	910.641303	1432.950276	-748.656732	933.597666	1363.315357	-735.443705	848.929646	1322.141749	-746.420289	889.239043	1162.385184	-783.498632	852.815149	1149.736091	-716.182539	708.208826	1126.617714	-204.366392	739.527137	939.566854	-208.448730	671.945632	955.168328	-181.541534	977.253174	1120.933695	-785.866680	1104.949444	987.120068	-723.635425	1066.625182	950.210776	-774.427668	
511	  4.258333	941.942819	1073.914778	-624.065096	925.993838	1075.540988	-368.017521	751.484341	1096.971113	-540.372413	747.980915	1087.957173	-457.722907	892.796013	902.374155	-307.384631	979.793624	815.385533	-310.351270	950.583605	688.014162	-342.398364	826.119590	869.631311	-675.677673	835.333299	741.727940	-661.974170	729.023162	655.661230	-643.448451	1129.176234	432.909439	-409.024636	1134.709869	366.225511	-336.842398	1184.162375	276.116251	-405.156643	699.282241	414.502264	-579.518702	641.716975	342.069310	-629.317226	619.450327	231.064561	-560.541779	1141.282835	 92.544720	-408.694791	1365.688973	154.310052	-438.923993	1318.201800	103.828401	-346.443494	466.222388	130.805487	-548.301251	691.811968	 73.287628	-524.667014	619.156797	 52.605264	-614.431738	910.439587	1532.179553	-678.528737	866.916776	1536.557376	-334.156499	944.470246	1486.653615	-466.400652	824.294958	1577.021329	-512.431871	826.212220	1429.388306	-267.461524	813.214258	1337.465816	-279.372674	736.975443	1337.886524	-269.085280	685.693918	1211.166412	-251.770774	691.184748	1205.898583	-324.664615	910.903941	1431.451247	-747.522786	934.022368	1361.874397	-734.195910	849.439299	1320.543917	-745.147230	889.930022	1160.800146	-781.777219	853.312399	1148.297408	-714.502862	709.839344	1124.944159	-202.858855	742.207845	938.086360	-206.705681	674.540359	953.350069	-179.771529	977.705159	1118.839967	-783.951149	1104.089435	983.760059	-721.845638	1065.769476	947.397255	-772.899153	
512	  4.266667	943.277674	1072.270403	-622.787528	927.151693	1074.661310	-366.680950	752.812067	1095.301986	-539.046481	749.281993	1086.852251	-456.672630	893.989694	901.287777	-306.953672	981.669158	814.845200	-310.020817	952.426142	687.247833	-342.252754	826.523411	868.554912	-674.803940	835.296736	740.664648	-661.135913	728.651839	654.996017	-642.841696	1129.463804	431.029363	-409.770759	1135.084424	364.426805	-337.617261	1182.611406	273.604083	-406.417559	696.027622	414.005461	-579.178127	637.284762	342.613127	-629.111497	612.680176	231.975887	-560.607070	1137.323558	 91.575182	-409.586165	1362.436953	149.243853	-440.866665	1314.425451	 99.791694	-348.105245	457.635684	134.435282	-548.888419	682.079066	 72.988582	-524.858726	609.142480	 53.006121	-614.344861	910.775884	1530.934186	-677.446311	867.077024	1535.346593	-333.153389	944.813200	1485.515976	-465.245348	824.533505	1575.648995	-511.406050	826.622812	1428.102562	-266.326208	813.989364	1336.128039	-278.116637	737.745329	1336.275217	-267.900486	686.921702	1209.358719	-250.368819	692.442097	1204.017779	-323.274012	911.241894	1430.097101	-746.334604	934.447396	1360.545116	-732.939566	849.919349	1319.128020	-743.767386	890.453208	1159.349227	-779.967668	853.583410	1147.062465	-712.657951	711.644466	1123.400472	-201.283233	745.222950	936.728487	-204.829838	677.449370	951.618816	-177.897464	977.960650	1116.830342	-781.974901	1102.884568	980.321442	-720.093978	1064.591235	944.622189	-771.448759	
513	  4.275000	944.898230	1070.676095	-621.285480	928.558656	1073.828928	-365.255069	754.426316	1093.683201	-537.497372	750.868880	1085.870123	-455.358511	895.283781	900.065768	-306.603699	983.678185	814.184983	-309.767125	954.423571	686.433873	-342.006328	827.269918	867.496198	-673.868899	835.659555	739.614554	-660.067147	728.681865	654.311209	-642.159810	1129.310796	428.822970	-410.641540	1134.844709	362.302062	-338.543316	1179.928031	270.537295	-407.811759	693.133093	413.523460	-578.783112	633.087343	343.277411	-628.900738	606.165072	233.042088	-560.690119	1131.664179	 91.145546	-410.398059	1357.687280	142.380613	-442.948379	1308.823858	 94.538553	-349.821339	449.288746	138.390000	-549.436560	672.446376	 72.691901	-525.039204	599.208701	 53.497025	-614.265052	911.199954	1529.780562	-676.286702	867.289025	1534.210844	-332.038039	945.232523	1484.492752	-464.028719	824.807202	1574.331651	-510.323536	827.078400	1426.929738	-265.129245	814.854613	1334.889413	-276.812434	738.605261	1334.744792	-266.658957	688.263586	1207.639395	-248.929515	693.868748	1202.174601	-321.840729	911.696349	1428.873301	-745.087427	934.892578	1359.305751	-731.635664	850.389893	1317.879445	-742.290985	890.808982	1158.024290	-778.090519	853.711045	1146.004105	-710.720997	713.600054	1121.966747	-199.639925	748.573905	935.509140	-202.782866	680.673863	949.971981	-175.907801	978.021866	1114.909524	-779.995897	1101.331324	976.781985	-718.361929	1063.090091	941.883251	-770.053324	
